HIERARCHY
ROOT SpineBase
{
  OFFSET 0.000000 0.000000 0.000000
  CHANNELS 6 Xposition Yposition Zposition Zrotation Xrotation Yrotation
  JOINT SpineMid
  {
    OFFSET 0.000000 31.552186 0.000000
    CHANNELS 3 Zrotation Xrotation Yrotation
    JOINT SpineShoulder
    {
      OFFSET -0.156757 23.419330 -1.000937
      CHANNELS 3 Zrotation Xrotation Yrotation
      JOINT Neck
      {
        OFFSET -0.084824 7.745586 -0.711399
        CHANNELS 3 Zrotation Xrotation Yrotation
        JOINT Head
        {
          OFFSET -0.127371 12.311428 3.974370
          CHANNELS 3 Zrotation Xrotation Yrotation
          End Site
          {
            OFFSET 0 0 0
          }
        }
      }
      JOINT ShoulderLeft
      {
        OFFSET -11.467399 -6.377525 -10.900094
        CHANNELS 3 Zrotation Xrotation Yrotation
        JOINT ElbowLeft
        {
          OFFSET -4.258508 -19.892830 -3.387019
          CHANNELS 3 Zrotation Xrotation Yrotation
          JOINT WristLeft
          {
            OFFSET -4.896686 -26.324759 5.170613
            CHANNELS 3 Zrotation Xrotation Yrotation
            JOINT HandLeft
            {
              OFFSET 0.046585 -10.389308 2.555064
              CHANNELS 3 Zrotation Xrotation Yrotation
              JOINT HandTipLeft
              {
                OFFSET -1.313470 -7.434905 -0.258183
                CHANNELS 3 Zrotation Xrotation Yrotation
                End Site
                {
                  OFFSET 0 0 0
                }
              }
              JOINT ThumbLeft
              {
                OFFSET -3.719582 2.413612 -2.493264
                CHANNELS 3 Zrotation Xrotation Yrotation
                End Site
                {
                  OFFSET 0 0 0
                }
              }
            }
          }
        }
      }
      JOINT ShoulderRight
      {
        OFFSET 12.433953 -4.939208 1.073708
        CHANNELS 3 Zrotation Xrotation Yrotation
        JOINT ElbowRight
        {
          OFFSET -16.641603 -18.223146 -8.857440
          CHANNELS 3 Zrotation Xrotation Yrotation
          JOINT WristRight
          {
            OFFSET -13.101902 -22.750922 -2.270518
            CHANNELS 3 Zrotation Xrotation Yrotation
            JOINT HandRight
            {
              OFFSET -1.571307 -6.913750 1.397631
              CHANNELS 3 Zrotation Xrotation Yrotation
              JOINT HandTipRight
              {
                OFFSET -4.491513 -8.206527 0.592879
                CHANNELS 3 Zrotation Xrotation Yrotation
                End Site
                {
                  OFFSET 0 0 0
                }
              }
              JOINT ThumbRight
              {
                OFFSET 4.817189 -0.514379 -1.774414
                CHANNELS 3 Zrotation Xrotation Yrotation
                End Site
                {
                  OFFSET 0 0 0
                }
              }
            }
          }
        }
      }
    }
  }
  JOINT HipLeft
  {
    OFFSET -6.270096 1.491920 -6.618815
    CHANNELS 3 Zrotation Xrotation Yrotation
    JOINT KneeLeft
    {
      OFFSET 4.637970 -41.310410 -1.284426
      CHANNELS 3 Zrotation Xrotation Yrotation
      JOINT AnkleLeft
      {
        OFFSET -1.278276 -32.009134 -3.635732
        CHANNELS 3 Zrotation Xrotation Yrotation
        JOINT FootLeft
        {
          OFFSET 9.965854 0.297822 5.489418
          CHANNELS 3 Zrotation Xrotation Yrotation
          End Site
          {
            OFFSET 0 0 0
          }
        }
      }
    }
  }
  JOINT HipRight
  {
    OFFSET 5.353117 1.616673 -0.523393
    CHANNELS 3 Zrotation Xrotation Yrotation
    JOINT KneeRight
    {
      OFFSET 7.113015 -42.494936 0.184331
      CHANNELS 3 Zrotation Xrotation Yrotation
      JOINT AnkleRight
      {
        OFFSET 3.789113 -30.988826 -0.027289
        CHANNELS 3 Zrotation Xrotation Yrotation
        JOINT FootRight
        {
          OFFSET -12.609204 0.265036 -8.807841
          CHANNELS 3 Zrotation Xrotation Yrotation
          End Site
          {
            OFFSET 0 0 0
          }
        }
      }
    }
  }
}
MOTION
Frames: 8
Frame Time: 0.033333
29.462061 76.038785 227.442957 -0.008441 -0.127258 -29.595813 -0.055510 0.114824 29.595859 -0.000000 0.000000 0.000000 -0.000000 0.000000 0.000000 0.000000 0.000000 0.000000 3.682388 -3.044389 0.123984 -6.882556 5.667683 -0.799419 4.640824 -2.433421 1.594624 12.060422 2.003483 -1.449632 0.000000 0.000000 0.000000 0.000000 0.000000 0.000000 -6.832146 7.199088 -2.605724 15.173568 -12.343140 7.671881 -1.548817 3.613664 -1.221108 -4.381212 8.655427 -4.970925 0.000000 0.000000 0.000000 0.000000 0.000000 0.000000 1.019139 -0.244307 29.478944 -1.602110 1.392059 0.213628 -0.221352 0.083560 -1.261536 0.000000 0.000000 0.000000 -0.055510 0.114824 29.595859 -0.000000 0.000000 0.000000 -0.000000 0.000000 0.000000 0.000000 0.000000 0.000000
29.400002 76.081595 227.421371 -0.052763 -0.140573 -29.959798 -0.024489 0.148138 29.959765 -0.000000 0.000000 0.000000 -0.000000 0.000000 0.000000 0.000000 0.000000 0.000000 3.607958 -2.811556 0.076901 -7.082124 5.398985 -0.812539 3.193212 -1.771538 1.156881 14.975802 1.475795 -0.946893 0.000000 0.000000 0.000000 0.000000 0.000000 0.000000 -8.294222 8.397332 -2.752764 17.260563 -13.373740 8.427246 -1.577919 2.747211 -0.892083 -4.421793 8.967587 -4.879596 0.000000 0.000000 0.000000 0.000000 0.000000 0.000000 1.125610 -0.221537 29.834886 -1.649026 1.456436 0.221118 -0.487104 0.218334 -1.305502 0.000000 0.000000 0.000000 -0.024489 0.148138 29.959765 -0.000000 0.000000 0.000000 -0.697523 0.482007 -0.431196 0.000000 0.000000 0.000000
29.320635 76.175873 227.407328 -0.096009 -0.123477 -30.509158 0.020030 0.155123 30.509028 -0.000000 0.000000 0.000000 0.804269 -0.692980 -0.262437 0.000000 0.000000 0.000000 3.595417 -2.900385 0.100820 -7.893324 5.009923 -0.854545 4.390245 -0.496964 1.341927 12.821986 0.337607 -0.692387 0.000000 0.000000 0.000000 0.000000 0.000000 0.000000 -7.122041 7.503352 -2.689116 15.835909 -12.574768 7.901642 -4.327855 3.479430 -1.404505 -0.024396 6.775802 -3.474464 0.000000 0.000000 0.000000 0.000000 0.000000 0.000000 1.314724 -0.236247 30.369873 -1.828937 1.606231 0.247069 -0.531700 0.235212 -1.324197 0.000000 0.000000 0.000000 0.020030 0.155123 30.509028 -0.000000 0.000000 0.000000 -0.674314 0.467073 -0.317125 0.000000 0.000000 0.000000
29.210021 76.273094 227.396804 -0.142091 -0.155094 -31.190493 0.041231 0.206261 31.190226 -0.000000 0.000000 0.000000 1.250547 -1.223491 -0.404369 0.000000 0.000000 0.000000 3.482293 -2.933368 0.125554 -8.355594 4.709390 -0.903865 3.744800 0.569133 1.080952 12.076827 -0.172096 -0.233696 0.000000 0.000000 0.000000 0.000000 0.000000 0.000000 -6.131700 6.871305 -2.718027 14.172445 -12.092164 7.614044 -4.400073 2.881803 -1.417440 0.170538 6.998207 -3.278489 0.000000 0.000000 0.000000 0.000000 0.000000 0.000000 1.505575 -0.197668 31.033842 -1.959934 1.712548 0.267636 -0.795814 0.388417 -1.311214 0.000000 0.000000 0.000000 0.041231 0.206261 31.190226 -0.000000 0.000000 0.000000 -0.000000 0.000000 0.000000 0.000000 0.000000 0.000000
29.086430 76.320597 227.381920 -0.176734 -0.276225 -31.761450 0.004869 0.327889 31.761010 -0.000000 0.000000 0.000000 1.757708 -2.244395 -0.559702 0.000000 0.000000 0.000000 3.338235 -2.916213 0.142378 -8.695114 4.584059 -0.976805 2.421241 1.098622 0.712613 12.477095 -1.988578 0.729627 0.000000 0.000000 0.000000 0.000000 0.000000 0.000000 -5.262828 6.376948 -2.783544 12.026236 -11.448816 7.188619 -4.008905 2.542391 -1.505787 1.486827 6.669438 -2.976083 0.000000 0.000000 0.000000 0.000000 0.000000 0.000000 1.784743 -0.054209 31.574463 -2.508312 2.003589 0.335566 -0.192052 0.067352 -1.349490 0.000000 0.000000 0.000000 0.004869 0.327889 31.761010 1.200772 0.214796 0.022926 -1.367360 -0.079305 0.961169 0.000000 0.000000 0.000000
28.970613 76.302433 227.360944 -0.188535 -0.495686 -32.203810 -0.104637 0.519904 32.203469 -0.000000 0.000000 0.000000 2.245705 -3.523684 -0.699224 0.000000 0.000000 0.000000 3.151991 -2.792756 0.139420 -8.747327 4.458128 -1.032393 0.636443 1.054559 0.250065 12.518860 -2.786245 1.476341 0.000000 0.000000 0.000000 0.000000 0.000000 0.000000 -4.659318 6.182748 -2.946441 9.608113 -10.677086 6.677154 -3.034621 1.919241 -1.465609 1.691405 6.501323 -2.788378 0.000000 0.000000 0.000000 0.000000 0.000000 0.000000 2.081719 0.176016 31.975145 -3.285033 2.416956 0.433989 0.863258 -0.516769 -1.468669 0.000000 0.000000 0.000000 -0.017226 1.426507 32.324918 0.694080 -0.472815 -0.084084 -1.591879 0.007637 1.096650 0.000000 0.000000 0.000000
28.883419 76.238841 227.344768 -0.162619 -0.766475 -32.392988 0.124615 -0.153267 32.379233 0.169665 -0.124402 0.001882 2.619000 -3.839076 -0.845238 0.000000 0.000000 0.000000 2.967996 -1.566904 0.080325 -8.708434 4.304581 -1.062435 -0.698869 0.508760 -0.129109 10.310170 -2.891269 1.891064 0.000000 0.000000 0.000000 0.000000 0.000000 0.000000 -4.336666 7.421736 -3.175179 7.370915 -10.357381 6.512031 -0.518211 0.269540 -1.031727 2.946011 6.993432 -2.981771 0.000000 0.000000 0.000000 0.000000 0.000000 0.000000 2.374923 0.433954 32.114777 -4.256964 2.958028 0.562971 1.972239 -1.166084 -1.550854 0.000000 0.000000 0.000000 0.023500 1.807542 32.515585 -0.827203 -0.745402 -0.133898 -0.715196 0.505006 0.468963 0.000000 0.000000 0.000000
28.820114 76.142324 227.330753 -0.122788 -1.083971 -32.424969 0.152087 -0.247641 32.409238 0.148102 -0.148718 -0.001864 2.905406 -4.753005 -0.929321 0.000000 0.000000 0.000000 2.890222 -0.950141 0.034546 -8.707264 4.071886 -1.067869 -1.605493 0.349072 -0.386308 7.439332 -1.765260 1.930939 0.000000 0.000000 0.000000 0.000000 0.000000 0.000000 -2.223576 6.196380 -2.927971 3.566584 -8.117471 5.325217 -0.509076 2.353109 -1.644658 3.490463 3.288946 -1.356989 0.000000 0.000000 0.000000 0.000000 0.000000 0.000000 2.627395 0.710379 32.093126 -5.276772 3.548703 0.709082 3.349217 -1.987536 -1.655577 0.000000 0.000000 0.000000 0.218321 2.116732 32.512176 -2.087855 -1.166294 -0.193528 -0.682030 1.678812 -0.284139 0.000000 0.000000 0.000000
